<?xml version="1.0" encoding="iso-8859-1"?>
<!-- Uploaded to: SVG Repo, www.svgrepo.com, Generator: SVG Repo Mixer Tools -->
<svg height="800px" width="800px" version="1.1" id="Layer_1" xmlns="http://www.w3.org/2000/svg" xmlns:xlink="http://www.w3.org/1999/xlink" 
	 viewBox="0 0 512 512" xml:space="preserve">
<circle style="fill:#E6F3FF;" cx="256" cy="256" r="256"/>
<path style="fill:#CFDBE6;" d="M512,256c0-0.486-0.016-0.969-0.019-1.455L384.072,127.381l-36.5-17.708h-96.744l-63.164,63.164V256
	l41.35,41.35L120.796,415.584l92.232,92.806C227.002,510.752,241.354,512,256,512C397.384,512,512,397.384,512,256z"/>
<path style="fill:#FC6F58;" d="M236.823,205.005c0-16.586,13.445-30.03,30.032-30.03c16.586,0,30.032,13.445,30.032,30.03
	c0-16.586,13.445-30.03,30.032-30.03s30.032,13.445,30.032,30.03c0,28.717-60.063,63.066-60.063,63.066
	S236.823,235.339,236.823,205.005z"/>
<path style="fill:#F1543F;" d="M296.886,205.005c0-16.586,13.445-30.03,30.032-30.03s30.032,13.445,30.032,30.03
	c0,28.717-60.063,63.066-60.063,63.066L296.886,205.005z"/>
<path style="fill:#31BAFD;" d="M384.39,127.61c-23.374-23.371-54.45-36.243-87.504-36.243c-33.052,0-64.128,12.872-87.502,36.243
	c-23.373,23.374-36.243,54.45-36.243,87.502c0,27.234,8.757,53.114,24.907,74.461l-51.784,51.784l-25.466-25.466l-24.381,24.381
	l25.466,25.466l-25.466,25.466l24.381,24.381l25.466-25.466l25.466,25.466l24.381-24.381l-25.466-25.466l51.784-51.784
	c21.347,16.15,47.226,24.907,74.459,24.907c33.054,0,64.129-12.872,87.504-36.243c23.369-23.376,36.242-54.451,36.242-87.505
	C420.633,182.06,407.761,150.985,384.39,127.61z M360.008,278.235c-16.86,16.862-39.277,26.146-63.123,26.146
	c-23.843,0-46.261-9.285-63.121-26.146c-16.862-16.86-26.146-39.277-26.146-63.123c0-23.843,9.285-46.261,26.146-63.121
	c16.86-16.862,39.277-26.146,63.121-26.146c23.845,0,46.263,9.285,63.123,26.146c16.862,16.86,26.146,39.277,26.146,63.121
	C386.155,238.957,376.87,261.375,360.008,278.235z"/>
<path style="fill:#2B9ED8;" d="M384.39,127.61c-0.384-0.384-0.788-0.743-1.177-1.121l-24.381,24.381
	c0.39,0.378,0.793,0.736,1.177,1.121c16.862,16.86,26.146,39.277,26.146,63.121c0,23.845-9.285,46.263-26.146,63.123
	c-16.86,16.862-39.277,26.146-63.123,26.146c-23.843,0-46.261-9.285-63.121-26.146c-0.384-0.384-0.745-0.786-1.121-1.177
	L107.458,402.244l13.34,13.34l25.466-25.466l25.466,25.466l24.381-24.381l-25.466-25.466l51.784-51.784
	c21.347,16.15,47.226,24.907,74.459,24.907c33.054,0,64.129-12.872,87.504-36.243c23.369-23.374,36.242-54.45,36.242-87.504
	C420.633,182.06,407.761,150.985,384.39,127.61z"/>
</svg>