<?xml version="1.0" encoding="iso-8859-1"?>
<!-- Uploaded to: SVG Repo, www.svgrepo.com, Generator: SVG Repo Mixer Tools -->
<svg height="800px" width="800px" version="1.1" id="Layer_1" xmlns="http://www.w3.org/2000/svg" xmlns:xlink="http://www.w3.org/1999/xlink" 
	 viewBox="0 0 475 475" xml:space="preserve">
<g>
	<g id="XMLID_35_">
		<g>
			<path style="fill:#FFD248;" d="M340.5,257.5h96c-4,40.2-19.9,76.9-44.2,106.5l-67.8-67.7C332.3,284.8,337.8,271.6,340.5,257.5z"
				/>
			<path style="fill:#FFD248;" d="M436.5,217.5h-96c-2.7-14.1-8.2-27.3-16-38.8l67.8-67.7C416.6,140.6,432.5,177.3,436.5,217.5z"/>
			<path style="fill:#FFD248;" d="M364,82.7l-67.7,67.8c-11.5-7.8-24.7-13.3-38.8-16v-96C297.7,42.5,334.4,58.4,364,82.7z"/>
			<path style="fill:#FFD248;" d="M217.5,38.5v96c-14.1,2.7-27.3,8.2-38.8,16L111,82.7C140.6,58.4,177.3,42.5,217.5,38.5z"/>
			<path style="fill:#FFD248;" d="M82.7,111l67.8,67.7c-7.8,11.5-13.3,24.7-16,38.8h-96C42.5,177.3,58.4,140.6,82.7,111z"/>
			<path style="fill:#FFD248;" d="M150.5,296.3L82.7,364c-24.3-29.6-40.2-66.3-44.2-106.5h96C137.2,271.6,142.7,284.8,150.5,296.3z"
				/>
			<path style="fill:#FFD248;" d="M217.5,340.5v96c-40.2-4-76.9-19.9-106.5-44.2l67.7-67.8C190.2,332.3,203.4,337.8,217.5,340.5z"/>
			<path style="fill:#FFD248;" d="M296.3,324.5l67.7,67.8c-29.6,24.3-66.3,40.2-106.5,44.2v-96C271.6,337.8,284.8,332.3,296.3,324.5
				z"/>
			<path style="fill:#E7ECED;" d="M237.5,182.5c33.1,0,60,26.9,60,60s-26.9,60-60,60s-60-26.9-60-60S204.4,182.5,237.5,182.5z"/>
			<path style="fill:#AFB6BB;" d="M257.5,134.5c14.1,2.7,27.3,8.2,38.8,16L364,82.7l22-22L414.3,89l-22,22l-67.8,67.7
				c7.8,11.5,13.3,24.7,16,38.8h96h31v40h-31h-96c-2.7,14.1-8.2,27.3-16,38.8l67.8,67.7l22,22L386,414.3l-22-22l-67.7-67.8
				c-11.5,7.8-24.7,13.3-38.8,16v96v31h-40v-31v-96c-14.1-2.7-27.3-8.2-38.8-16L111,392.3l-22,22L60.7,386l22-22l67.8-67.7
				c-7.8-11.5-13.3-24.7-16-38.8h-96h-31v-40h31h96c2.7-14.1,8.2-27.3,16-38.8L82.7,111l-22-22L89,60.7l22,22l67.7,67.8
				c11.5-7.8,24.7-13.3,38.8-16v-96v-31h40v31V134.5z M297.5,242.5c0-33.1-26.9-60-60-60s-60,26.9-60,60s26.9,60,60,60
				S297.5,275.6,297.5,242.5z"/>
		</g>
		<g>
			<path d="M475,265v-55h-31.827c-4.76-35.903-18.776-69.675-40.845-98.421L424.906,89L386,50.094l-22.58,22.579
				c-28.745-22.07-62.517-36.086-98.42-40.846V0h-55v31.827c-35.903,4.76-69.675,18.776-98.421,40.845L89,50.094L50.094,89
				l22.579,22.579C50.603,140.325,36.587,174.097,31.827,210H0v55h31.827c4.76,35.903,18.776,69.675,40.845,98.421L50.094,386
				L89,424.906l22.579-22.579c28.745,22.069,62.518,36.085,98.421,40.845V475h55v-31.827c35.903-4.76,69.675-18.776,98.42-40.845
				L386,424.906L424.906,386l-22.579-22.579c22.069-28.745,36.085-62.518,40.845-98.421H475z M391.618,352.72l-57.555-57.47
				c5.625-9.389,9.801-19.522,12.465-30.25h81.502C423.463,296.905,410.997,326.939,391.618,352.72z M391.618,122.28
				c19.379,25.781,31.845,55.814,36.412,87.72h-81.502c-2.664-10.727-6.84-20.861-12.465-30.25L391.618,122.28z M265,46.97
				c31.905,4.567,61.939,17.033,87.72,36.412l-57.47,57.555c-9.389-5.625-19.522-9.801-30.25-12.465V46.97z M210,46.97v81.502
				c-10.727,2.664-20.861,6.84-30.25,12.465l-57.47-57.555C148.061,64.003,178.095,51.536,210,46.97z M83.382,122.28l57.555,57.47
				c-5.625,9.389-9.801,19.523-12.465,30.25H46.97C51.536,178.095,64.003,148.061,83.382,122.28z M83.382,352.72
				C64.003,326.939,51.536,296.905,46.97,265h81.502c2.664,10.728,6.84,20.861,12.465,30.25L83.382,352.72z M210,428.03
				c-31.905-4.567-61.939-17.034-87.72-36.412l57.47-57.555c9.389,5.625,19.523,9.801,30.25,12.465V428.03z M265,428.03v-81.502
				c10.728-2.664,20.861-6.84,30.25-12.465l57.47,57.555C326.939,410.997,296.905,423.464,265,428.03z M386,403.693l-88.776-88.883
				l-5.134,3.483c-10.833,7.348-22.945,12.341-36.001,14.841L250,334.3V460h-25V334.3l-6.089-1.166
				c-13.056-2.5-25.168-7.493-36.001-14.841l-5.134-3.483L89,403.693L71.307,386l88.883-88.776l-3.482-5.134
				c-7.348-10.833-12.341-22.945-14.841-36.001L140.7,250H15v-25h125.7l1.166-6.089c2.5-13.056,7.493-25.168,14.841-36.001
				l3.482-5.134L71.307,89L89,71.307l88.776,88.883l5.134-3.482c10.833-7.348,22.945-12.341,36.001-14.841L225,140.7V15h25v125.7
				l6.089,1.166c13.056,2.5,25.168,7.493,36.001,14.841l5.134,3.482L386,71.307L403.693,89l-88.883,88.776l3.483,5.134
				c7.348,10.833,12.341,22.945,14.841,36.001L334.3,225H460v25H334.3l-1.166,6.089c-2.5,13.056-7.493,25.168-14.841,36.001
				l-3.483,5.134L403.693,386L386,403.693z"/>
			<path d="M237.5,175c-37.22,0-67.5,30.28-67.5,67.5s30.28,67.5,67.5,67.5s67.5-30.28,67.5-67.5S274.72,175,237.5,175z M237.5,295
				c-28.948,0-52.5-23.552-52.5-52.5s23.552-52.5,52.5-52.5s52.5,23.552,52.5,52.5S266.448,295,237.5,295z"/>
		</g>
	</g>
</g>
</svg>