<?xml version="1.0" encoding="iso-8859-1"?>
<!-- Uploaded to: SVG Repo, www.svgrepo.com, Generator: SVG Repo Mixer Tools -->
<svg height="800px" width="800px" version="1.1" id="Layer_1" xmlns="http://www.w3.org/2000/svg" xmlns:xlink="http://www.w3.org/1999/xlink" 
	 viewBox="0 0 512.002 512.002" xml:space="preserve">
<circle style="fill:#E6F3FF;" cx="256.001" cy="256" r="256"/>
<path style="fill:#CFDBE6;" d="M512.001,256c0-17.615-1.781-34.814-5.17-51.428L405.734,102.819l-35.209,39.619l-28.062-28.062
	l-28.186,20.082l34.114,32.147l-56.408,61.593l-43.46-43.46h-84.213l-59.411,59.411l16.063,139.421l128.345,128.345
	c2.224,0.057,4.456,0.086,6.694,0.086C397.385,512,512.001,397.384,512.001,256z"/>
<path style="fill:#FC6F58;" d="M150.62,289.213c0-16.849,13.66-30.51,30.51-30.51s30.51,13.66,30.51,30.51
	c0-16.849,13.66-30.51,30.51-30.51s30.51,13.66,30.51,30.51c0,29.174-61.019,64.071-61.019,64.071S150.62,320.031,150.62,289.213z"
	/>
<path style="fill:#F1543F;" d="M211.64,289.213c0-16.849,13.66-30.51,30.51-30.51s30.51,13.66,30.51,30.51
	c0,29.174-61.019,64.071-61.019,64.071V289.213z"/>
<path style="fill:#31BAFD;" d="M374.097,194.276l34.461-1.077l-2.824-90.381l-90.381-2.824l-1.077,34.461l34.366,1.074
	l-61.349,61.349c-49.124-37.198-119.584-33.439-164.357,11.331c-48.909,48.911-48.909,128.495,0,177.405
	c24.457,24.455,56.579,36.681,88.702,36.681c32.125,0,64.248-12.228,88.704-36.681c44.772-44.773,48.53-115.234,11.331-164.357
	l61.349-61.349L374.097,194.276z M275.962,361.236c-35.466,35.466-93.179,35.466-128.645,0c-35.466-35.468-35.466-93.177,0-128.645
	c17.736-17.736,41.026-26.6,64.324-26.6c23.292,0,46.59,8.869,64.322,26.6C311.428,268.059,311.428,325.768,275.962,361.236z"/>
<path style="fill:#2B9ED8;" d="M405.734,102.819l-0.557-0.017l-129.51,129.51c0.097,0.097,0.198,0.183,0.295,0.279
	c35.466,35.468,35.466,93.177,0,128.645c-35.466,35.466-93.179,35.466-128.645,0c-0.097-0.097-0.184-0.198-0.279-0.295
	l-24.381,24.381c0.097,0.097,0.183,0.198,0.279,0.295c24.457,24.455,56.579,36.681,88.702,36.681
	c32.125,0,64.248-12.228,88.704-36.681c44.772-44.773,48.53-115.234,11.331-164.357l61.349-61.349l1.074,34.366l34.461-1.077
	L405.734,102.819z"/>
</svg>