<svg width="24" height="24" viewBox="0 0 24 24" fill="none" xmlns="http://www.w3.org/2000/svg">
<path d="M8 10.5C8 10.7652 8.10536 11.0196 8.29289 11.2071C8.48043 11.3946 8.73478 11.5 9 11.5C9.26522 11.5 9.51957 11.3946 9.70711 11.2071C9.89464 11.0196 10 10.7652 10 10.5C10 10.2348 9.89464 9.98043 9.70711 9.79289C9.51957 9.60536 9.26522 9.5 9 9.5C8.73478 9.5 8.48043 9.60536 8.29289 9.79289C8.10536 9.98043 8 10.2348 8 10.5Z" fill="black"/>
<path d="M14 10.5C14 10.7652 14.1054 11.0196 14.2929 11.2071C14.4804 11.3946 14.7348 11.5 15 11.5C15.2652 11.5 15.5196 11.3946 15.7071 11.2071C15.8946 11.0196 16 10.7652 16 10.5C16 10.2348 15.8946 9.98043 15.7071 9.79289C15.5196 9.60536 15.2652 9.5 15 9.5C14.7348 9.5 14.4804 9.60536 14.2929 9.79289C14.1054 9.98043 14 10.2348 14 10.5Z" fill="black"/>
<path d="M19 11.57C18.8986 11.527 18.8142 11.4518 18.76 11.3559C18.7058 11.2601 18.6847 11.149 18.7 11.04C18.7149 10.8603 18.7149 10.6797 18.7 10.5C18.7012 9.95595 18.5838 9.4182 18.3558 8.92424C18.1278 8.43028 17.7948 7.99201 17.38 7.63999C17.3237 7.59397 17.2783 7.536 17.2472 7.47027C17.216 7.40455 17.1999 7.33271 17.2 7.25999V5.84999C17.2021 5.80877 17.1935 5.76773 17.175 5.73081C17.1566 5.6939 17.129 5.66235 17.0948 5.63923C17.0606 5.61611 17.021 5.6022 16.9799 5.59883C16.9388 5.59545 16.8975 5.60274 16.86 5.61999L12.86 7.18999C12.5679 7.30913 12.2554 7.37027 11.94 7.36999C11.6566 7.36959 11.3756 7.31879 11.11 7.21999L7.09 5.77999C7.05315 5.7657 7.01345 5.76036 6.97413 5.7644C6.93482 5.76843 6.89702 5.78173 6.86385 5.8032C6.83067 5.82467 6.80305 5.8537 6.78326 5.8879C6.76347 5.92211 6.75207 5.96052 6.75 5.99999V7.25999C6.7513 7.33192 6.73674 7.40326 6.70736 7.46894C6.67798 7.53461 6.6345 7.59301 6.58 7.63999C6.16338 7.99106 5.82849 8.42891 5.59876 8.92292C5.36903 9.41693 5.25 9.95517 5.25 10.5C5.24008 10.6798 5.24008 10.8601 5.25 11.04C5.26444 11.1477 5.24409 11.2572 5.19193 11.3525C5.13976 11.4479 5.0585 11.5241 4.96 11.57C4.30058 11.8684 3.74129 12.3507 3.34927 12.9591C2.95725 13.5676 2.74917 14.2762 2.75 15V17.25C2.75153 18.4679 3.13971 19.6538 3.85859 20.6368C4.57746 21.6199 5.58991 22.3493 6.75 22.72C6.79486 22.7337 6.84285 22.7334 6.88754 22.7192C6.93222 22.7049 6.97147 22.6772 7 22.64C7.03163 22.5983 7.04876 22.5473 7.04876 22.495C7.04876 22.4426 7.03163 22.3917 7 22.35C6.34152 21.3573 5.9934 20.1912 6 19C6 18.8674 6.05268 18.7402 6.14645 18.6464C6.24022 18.5527 6.36739 18.5 6.5 18.5C6.63261 18.5 6.75979 18.5527 6.85356 18.6464C6.94732 18.7402 7 18.8674 7 19C7 20.3261 7.52679 21.5978 8.46447 22.5355C9.40215 23.4732 10.6739 24 12 24C13.3261 24 14.5979 23.4732 15.5355 22.5355C16.4732 21.5978 17 20.3261 17 19C17 18.8674 17.0527 18.7402 17.1464 18.6464C17.2402 18.5527 17.3674 18.5 17.5 18.5C17.6326 18.5 17.7598 18.5527 17.8536 18.6464C17.9473 18.7402 18 18.8674 18 19C18.0066 20.1912 17.6585 21.3573 17 22.35C16.9684 22.3917 16.9512 22.4426 16.9512 22.495C16.9512 22.5473 16.9684 22.5983 17 22.64C17.0298 22.6814 17.0725 22.7117 17.1213 22.7261C17.1702 22.7406 17.2225 22.7385 17.27 22.72C18.4301 22.3493 19.4425 21.6199 20.1614 20.6368C20.8803 19.6538 21.2685 18.4679 21.27 17.25V15C21.267 14.2693 21.0505 13.5554 20.6472 12.946C20.2439 12.3366 19.6714 11.8584 19 11.57ZM9 12.75C8.55499 12.75 8.11998 12.618 7.74997 12.3708C7.37996 12.1236 7.09157 11.7722 6.92127 11.361C6.75098 10.9499 6.70642 10.4975 6.79324 10.061C6.88005 9.62457 7.09434 9.22366 7.40901 8.909C7.72368 8.59433 8.12459 8.38004 8.56105 8.29322C8.99751 8.2064 9.44991 8.25096 9.86104 8.42126C10.2722 8.59155 10.6236 8.87994 10.8708 9.24995C11.118 9.61996 11.25 10.055 11.25 10.5C11.25 11.0967 11.0129 11.669 10.591 12.091C10.169 12.5129 9.59674 12.75 9 12.75ZM13.17 14.08L12.54 15.01C12.4765 15.0929 12.3948 15.1601 12.3011 15.2064C12.2075 15.2526 12.1045 15.2767 12 15.2767C11.8956 15.2767 11.7925 15.2526 11.6989 15.2064C11.6052 15.1601 11.5235 15.0929 11.46 15.01L10.83 14.08C10.807 14.0187 10.807 13.9512 10.83 13.89C10.8484 13.8208 10.891 13.7605 10.95 13.72C11.2921 13.5211 11.5995 13.2678 11.86 12.97C11.8822 12.9442 11.9099 12.9236 11.941 12.9097C11.9721 12.8959 12.0059 12.8892 12.04 12.89C12.0763 12.8903 12.1121 12.8985 12.1449 12.914C12.1777 12.9296 12.2068 12.9521 12.23 12.98C12.4935 13.2719 12.8005 13.5215 13.14 13.72C13.1692 13.7391 13.194 13.7641 13.213 13.7934C13.2319 13.8226 13.2445 13.8555 13.25 13.89C13.2532 13.9258 13.2476 13.9618 13.2336 13.9949C13.2197 14.0281 13.1978 14.0573 13.17 14.08ZM15 12.75C14.555 12.75 14.12 12.618 13.75 12.3708C13.38 12.1236 13.0916 11.7722 12.9213 11.361C12.751 10.9499 12.7064 10.4975 12.7932 10.061C12.8801 9.62457 13.0943 9.22366 13.409 8.909C13.7237 8.59433 14.1246 8.38004 14.561 8.29322C14.9975 8.2064 15.4499 8.25096 15.861 8.42126C16.2722 8.59155 16.6236 8.87994 16.8708 9.24995C17.118 9.61996 17.25 10.055 17.25 10.5C17.25 11.0967 17.0129 11.669 16.591 12.091C16.169 12.5129 15.5967 12.75 15 12.75Z" fill="black"/>
<path d="M4.75 7.43001C5.01522 7.43001 5.26957 7.32466 5.45711 7.13712C5.64464 6.94958 5.75 6.69523 5.75 6.43001V4.60001C5.74934 4.55999 5.75915 4.52048 5.77844 4.48541C5.79773 4.45033 5.82585 4.4209 5.86 4.40001C5.89424 4.38324 5.93187 4.37451 5.97 4.37451C6.00813 4.37451 6.04576 4.38324 6.08 4.40001L11.49 6.32001C11.65 6.37962 11.8193 6.4101 11.99 6.41001C12.1786 6.40826 12.3652 6.37094 12.54 6.30001L18.59 3.92001C18.7313 3.86547 18.8529 3.7694 18.9385 3.64445C19.0242 3.51949 19.0701 3.37152 19.07 3.22001C19.0709 3.06956 19.0252 2.92251 18.9393 2.799C18.8533 2.67549 18.7314 2.58154 18.59 2.53001L12.53 0.110014C12.2071 -0.00770006 11.8529 -0.00770006 11.53 0.110014L4.08 2.71001C3.98336 2.74495 3.89984 2.80881 3.84079 2.89291C3.78175 2.97701 3.75004 3.07726 3.75 3.18001V6.43001C3.75 6.69523 3.85536 6.94958 4.04289 7.13712C4.23043 7.32466 4.48478 7.43001 4.75 7.43001Z" fill="black"/>
</svg>
