<?xml version="1.0" encoding="iso-8859-1"?>
<!-- Uploaded to: SVG Repo, www.svgrepo.com, Generator: SVG Repo Mixer Tools -->
<svg height="800px" width="800px" version="1.1" id="Layer_1" xmlns="http://www.w3.org/2000/svg" xmlns:xlink="http://www.w3.org/1999/xlink" 
	 viewBox="0 0 512 512" xml:space="preserve">
<polygon style="fill:#3F5968;" points="501.551,468.052 468.049,501.552 207.092,240.602 207.094,240.59 240.595,207.101 "/>
<path style="fill:#FF1A1A;" d="M240.595,207.101l-33.502,33.489l-0.001,0.011l-59.07-59.069c-9.254-9.253-9.253-24.252,0.001-33.502
	c4.62-4.626,10.683-6.945,16.741-6.944c6.071-0.001,12.132,2.318,16.759,6.944L240.595,207.101z"/>
<path d="M508.939,460.663L247.984,199.712l-59.07-59.07c-6.452-6.451-15.027-10.005-24.152-10.005
	c-9.116,0-17.685,3.555-24.125,10.003c-6.45,6.447-10.003,15.02-10.003,24.139c-0.001,9.119,3.551,17.693,10,24.141l59.07,59.069
	l260.956,260.95c2.041,2.041,4.715,3.06,7.388,3.06c2.674,0,5.348-1.021,7.388-3.06l33.503-33.5c1.959-1.959,3.06-4.617,3.06-7.388
	C512,465.279,510.899,462.623,508.939,460.663z M151.532,164.781c0-3.536,1.377-6.86,3.886-9.366
	c2.498-2.501,5.816-3.879,9.352-3.879s6.862,1.379,9.366,3.884l51.681,51.68l-18.728,18.721l-51.679-51.676
	C152.909,171.643,151.532,168.317,151.532,164.781z M468.049,486.775L221.866,240.598l14.51-14.506l4.217-4.215l246.18,246.175
	L468.049,486.775z"/>
<path d="M96.609,81.842c-4.081-4.08-10.696-4.08-14.778,0c-4.08,4.08-4.08,10.697,0,14.777l24.17,24.168
	c2.041,2.041,4.715,3.061,7.388,3.061c2.674,0,5.348-1.021,7.388-3.061c4.08-4.08,4.08-10.697,0-14.777L96.609,81.842z"/>
<path d="M62.694,77.483c2.041,2.041,4.715,3.061,7.388,3.061c2.674,0,5.348-1.021,7.388-3.061c4.08-4.08,4.08-10.697,0-14.777
	L65.067,50.302c-4.081-4.08-10.696-4.08-14.778,0c-4.08,4.08-4.08,10.697,0,14.777L62.694,77.483z"/>
<path d="M99.682,171.709c0-5.771-4.678-10.449-10.449-10.449l-78.784-0.001C4.679,161.259,0,165.938,0,171.708
	c0,5.771,4.678,10.449,10.449,10.449l78.784,0.001C95.004,182.158,99.682,177.479,99.682,171.709z"/>
<path d="M59.912,268.718l-9.627,9.626c-4.08,4.08-4.08,10.697,0,14.777c2.041,2.041,4.715,3.06,7.388,3.06
	c2.674,0,5.348-1.021,7.388-3.06l9.627-9.626c4.08-4.08,4.08-10.697,0-14.777C70.609,264.638,63.995,264.638,59.912,268.718z"/>
<path d="M105.992,222.638l-27.489,27.489c-4.08,4.08-4.08,10.697,0,14.778c2.041,2.041,4.715,3.06,7.388,3.06
	c2.674,0,5.348-1.02,7.388-3.061l27.49-27.49c4.08-4.08,4.08-10.697,0-14.778C116.689,218.558,110.075,218.558,105.992,222.638z"/>
<path d="M171.71,243.728c-5.77,0-10.449,4.678-10.449,10.449v78.787c0,5.771,4.679,10.449,10.449,10.449s10.449-4.678,10.449-10.449
	v-78.787C182.159,248.406,177.48,243.728,171.71,243.728z"/>
<path d="M243.734,171.709c0,5.771,4.679,10.449,10.449,10.449h78.79c5.77,0,10.449-4.678,10.449-10.449s-4.679-10.449-10.449-10.449
	h-78.789C248.412,161.26,243.734,165.938,243.734,171.709z"/>
<path d="M230.02,123.848c2.674,0,5.348-1.021,7.388-3.061l24.163-24.162c4.08-4.08,4.08-10.697,0-14.777s-10.695-4.08-14.778,0
	l-24.163,24.162c-4.08,4.08-4.08,10.697,0,14.777C224.672,122.828,227.345,123.848,230.02,123.848z"/>
<path d="M273.326,80.543c2.674,0,5.348-1.021,7.388-3.061l12.404-12.404c4.08-4.08,4.08-10.697,0-14.777s-10.695-4.08-14.778,0
	l-12.403,12.403c-4.08,4.08-4.08,10.697,0,14.777C267.979,79.522,270.652,80.543,273.326,80.543z"/>
<path d="M171.711,99.681c5.771,0,10.449-4.679,10.449-10.449l-0.001-78.782c0-5.771-4.679-10.449-10.449-10.449
	c-5.771,0-10.449,4.679-10.449,10.449l0.001,78.782C161.262,95.003,165.941,99.681,171.711,99.681z"/>
</svg>